<?xml version="1.0" encoding="utf-8"?>
<!-- Generator: Adobe Illustrator 20.0.0, SVG Export Plug-In . SVG Version: 6.00 Build 0)  -->
<svg version="1.1" id="Capa_1" xmlns="http://www.w3.org/2000/svg" xmlns:xlink="http://www.w3.org/1999/xlink" x="0px" y="0px"
	 width="92px" height="92px" viewBox="0 0 92 92" enable-background="new 0 0 92 92" xml:space="preserve">
<path d="M30,35.2c0.7,0,1.3,0.1,1.9,0.3c2.3-2.6,4.8-4.9,7.6-7c-0.1-0.5-0.2-1-0.2-1.5c0-0.7,0.1-1.4,0.3-2.1
	c-3.1-2.2-6.4-4.1-10-5.5c-3.3,2.1-6.2,4.7-8.6,7.9c1.7,3,3.8,5.9,6.1,8.5C28,35.5,29,35.2,30,35.2z M23.5,41.7
	c0-0.9,0.2-1.8,0.5-2.6c-2.1-2.3-4-4.7-5.6-7.4c-2.1,4.1-3.2,8.8-3.2,13.7c0,5.7,1.6,11,4.3,15.6c1-5.5,2.8-10.7,5.4-15.4
	C24,44.5,23.5,43.2,23.5,41.7z M45.7,20.6c1.7,0,3.3,0.7,4.4,1.8c3.4-1.5,6.9-2.6,10.6-3.3c-4.5-2.6-9.7-4.1-15.2-4.1
	c-3.8,0-7.4,0.7-10.7,1.9c2.6,1.3,5.2,2.8,7.5,4.6C43.4,20.9,44.5,20.6,45.7,20.6z M55.4,51.1c0.4-0.8,1-1.6,1.7-2.2
	c-1.9-5.9-4.9-11.3-8.8-15.9c-0.8,0.3-1.6,0.5-2.5,0.5c-1.4,0-2.7-0.5-3.8-1.2c-2.3,1.8-4.5,3.8-6.5,6c0.6,1,1,2.2,1,3.4
	c0,0.7-0.1,1.3-0.3,1.9C41.8,47.5,48.4,50.1,55.4,51.1z M63.8,59.9c0.1,1.2,0.1,2.5,0.1,3.7c0,2.2-0.1,4.4-0.4,6.5
	c5.2-3.8,9.1-9.1,11.1-15.4c-2.3,0.6-4.8,1-7.2,1.2C66.8,57.7,65.5,59.1,63.8,59.9z M53.9,55.5c-7.5-1.2-14.5-4.1-20.6-8.2
	c-1,0.6-2.1,1-3.4,1c-0.5,0-0.9,0-1.3-0.1c-2.9,5.5-4.8,11.7-5.3,18.2c2.9,3.1,6.4,5.6,10.4,7.3C38.7,65.9,45.6,59.7,53.9,55.5z
	 M66.1,22.9c-4.9,0.5-9.5,1.7-13.9,3.5c0,0.2,0,0.4,0,0.6c0,1-0.2,2-0.7,2.8c4.3,5.1,7.7,11,9.8,17.5c2.6,0,4.9,1.7,5.9,4
	c2.9-0.3,5.8-0.9,8.5-1.7c0.2-1.4,0.3-2.8,0.3-4.3C76.1,36.5,72.2,28.5,66.1,22.9z M57.2,58.9c-7.8,3.6-14.3,9.2-19,16.1
	c2.4,0.6,4.8,0.9,7.4,0.9c4.6,0,8.9-1,12.9-2.8c0.6-3.1,1-6.2,1-9.5c0-1.2-0.1-2.3-0.1-3.5C58.5,59.8,57.8,59.4,57.2,58.9z"/>
</svg>
