<?xml version="1.0" encoding="utf-8"?>
<!-- Generator: Adobe Illustrator 16.0.0, SVG Export Plug-In . SVG Version: 6.00 Build 0)  -->
<!DOCTYPE svg PUBLIC "-//W3C//DTD SVG 1.1//EN" "http://www.w3.org/Graphics/SVG/1.1/DTD/svg11.dtd">
<svg version="1.1" id="Layer_1" xmlns="http://www.w3.org/2000/svg" xmlns:xlink="http://www.w3.org/1999/xlink" x="0px" y="0px"
	 width="450px" height="160px" viewBox="0 0 450 160" enable-background="new 0 0 450 160" xml:space="preserve">
<path fill="none" stroke="#CCCCDD" stroke-width="5" stroke-miterlimit="10" d="M230,78c0,0,18.7-20,74-36.1
	c37-10.8,134.7-9,134.7-9"/>
<path fill="none" stroke="#CCCCDD" stroke-width="5" stroke-miterlimit="10" d="M230,77.8c0,0,18.7,20,74,36.1
	c37,10.8,134.7,9,134.7,9"/>
<line fill="none" stroke="#CCCCDD" stroke-width="5" stroke-miterlimit="10" x1="230" y1="78.5" x2="10" y2="78.5"/>
<text transform="matrix(1 0 0 1 185.2148 153.1797)" font-family="'Helvetica'" font-size="14">Sub Company A</text>
<text transform="matrix(1 0 0 1 335.75 14.2139)" font-family="'Helvetica'" font-size="14">Sub Contractor A</text>
<text transform="matrix(1 0 0 1 335.75 153.1797)" font-family="'Helvetica'" font-size="14">Sub Contractor B</text>
<text transform="matrix(1 0 0 1 1 153.1797)" font-family="'Helvetica'" font-size="14">State-Owned Enterprise</text>
<circle fill="#333344" cx="10.4" cy="77.7" r="9"/>
<circle fill="#333344" cx="438.4" cy="32.7" r="9.2"/>
<circle fill="#333344" cx="438.4" cy="122.7" r="9.2"/>
<circle fill="#4DAA17" cx="230.4" cy="77.7" r="9.5"/>
</svg>
