<?xml version="1.0" encoding="utf-8"?>
<!-- Generator: Adobe Illustrator 20.0.0, SVG Export Plug-In . SVG Version: 6.00 Build 0)  -->
<svg version="1.1" id="Find" xmlns="http://www.w3.org/2000/svg" xmlns:xlink="http://www.w3.org/1999/xlink" x="0px" y="0px"
	 viewBox="0 0 24 24" enable-background="new 0 0 24 24" xml:space="preserve">
<path fill="#FFFFFF" d="M23.8,20.6l-5.6-5.6c1-1.5,1.5-3.3,1.5-5.2c0-5.4-4.4-9.8-9.8-9.8S0,4.4,0,9.8c0,5.4,4.4,9.8,9.8,9.8
	c2.1,0,4-0.7,5.6-1.8l5.5,5.5c0.4,0.4,0.9,0.6,1.4,0.6c0.5,0,1-0.2,1.4-0.6C24.5,22.7,24.5,21.4,23.8,20.6z M9.8,16.5
	c-3.7,0-6.6-3-6.6-6.6s3-6.6,6.6-6.6c3.7,0,6.6,3,6.6,6.6S13.5,16.5,9.8,16.5z"/>
</svg>
